<svg width="42" height="42" viewBox="0 0 42 42" fill="none" xmlns="http://www.w3.org/2000/svg">
<path d="M22.8151 30.1322H2.89065C2.43471 30.1322 2.06472 29.7623 2.06472 29.3063V13.5972H37.2082V15.6619C37.2082 16.2297 37.6728 16.6943 38.2406 16.6943C38.8084 16.6943 39.2729 16.2297 39.2729 15.6619V8.22024C39.2729 6.62868 37.9738 5.32959 36.3823 5.32959L2.89079 5.32973C1.29063 5.32973 0.000141144 6.62882 0.000141144 8.22038V29.3065C0.000141144 30.898 1.29924 32.1971 2.89079 32.1971H22.824C23.3918 32.1971 23.8563 31.7326 23.8563 31.1648C23.8563 30.5968 23.3918 30.1323 22.8154 30.1323L22.8151 30.1322ZM2.89065 7.39445H36.3821C36.8381 7.39445 37.2081 7.7644 37.2081 8.22038V11.5325L2.05758 11.5324V8.22024C2.05758 7.7643 2.43614 7.39445 2.89212 7.39445L2.89065 7.39445Z" fill="#968A83"/>
<path d="M20.6644 21.2625C20.6644 20.6947 20.1998 20.2301 19.632 20.2301H7.22624C6.65844 20.2301 6.19388 20.6947 6.19388 21.2625C6.19388 21.8303 6.65844 22.2948 7.22624 22.2948H19.632C20.2084 22.2948 20.6644 21.8303 20.6644 21.2625Z" fill="#968A83"/>
<path d="M7.22645 23.9294C6.65865 23.9294 6.19409 24.394 6.19409 24.9618C6.19409 25.5296 6.65865 25.9942 7.22645 25.9942H12.1905C12.7583 25.9942 13.2229 25.5296 13.2229 24.9618C13.2229 24.394 12.7583 23.9294 12.1905 23.9294H7.22645Z" fill="#968A83"/>
<path d="M7.10605 18.5524H19.5118C20.0796 18.5524 20.5442 18.0878 20.5442 17.52C20.5442 16.9522 20.0796 16.4877 19.5118 16.4877H7.10605C6.53825 16.4877 6.07369 16.9522 6.07369 17.52C6.07369 18.0878 6.52964 18.5524 7.10605 18.5524Z" fill="#968A83"/>
<path d="M40.9745 25.6585H39.4603V23.2497C39.4603 20.2644 37.0257 17.8296 34.0402 17.8296C31.055 17.8296 28.6201 20.2643 28.6201 23.2497V25.6585H27.106C26.5382 25.6585 26.0736 26.1231 26.0736 26.6909V35.6379C26.0736 36.2057 26.5382 36.6703 27.106 36.6703H40.9653C41.5331 36.6703 41.9976 36.2057 41.9976 35.6379V26.6909C42.0064 26.1145 41.5418 25.6585 40.974 25.6585H40.9745ZM30.6852 23.2411C30.6852 21.3914 32.1908 19.8859 34.0404 19.8859C35.8901 19.8859 37.3956 21.3914 37.3956 23.2411V25.6499H30.6854L30.6852 23.2411ZM39.942 34.5972H28.1386V27.7148H39.9332V34.5972H39.942Z" fill="#968A83"/>
</svg>
